<?xml version="1.0" encoding="utf-8"?>
<svg version="1.1" xmlns:xlink="http://www.w3.org/1999/xlink" width="24px" height="24px" xmlns="http://www.w3.org/2000/svg">
  <g transform="matrix(1 0 0 1 -769 -139 )">
    <path d="M 781 139  C 787.72 139  793 144.28  793 151  C 793 157.72  787.72 163  781 163  C 774.28 163  769 157.72  769 151  C 769 144.28  774.28 139  781 139  Z " fill-rule="nonzero" fill="#ffffff" stroke="none" />
    <path d="M 781 139.5  C 787.44 139.5  792.5 144.56  792.5 151  C 792.5 157.44  787.44 162.5  781 162.5  C 774.56 162.5  769.5 157.44  769.5 151  C 769.5 144.56  774.56 139.5  781 139.5  Z " stroke-width="1" stroke="#cccccc" fill="none" />
  </g>
</svg>