<?xml version="1.0" encoding="utf-8"?>
<svg version="1.1" xmlns:xlink="http://www.w3.org/1999/xlink" width="10px" height="18px" xmlns="http://www.w3.org/2000/svg">
  <g transform="matrix(1 0 0 1 -1485 -673 )">
    <path d="M 1490 674  C 1492.24 674  1494 677.52  1494 682  C 1494 686.48  1492.24 690  1490 690  C 1487.76 690  1486 686.48  1486 682  C 1486 677.52  1487.76 674  1490 674  Z " fill-rule="nonzero" fill="#ffffff" stroke="none" />
    <path d="M 1490 674  C 1492.24 674  1494 677.52  1494 682  C 1494 686.48  1492.24 690  1490 690  C 1487.76 690  1486 686.48  1486 682  C 1486 677.52  1487.76 674  1490 674  Z " stroke-width="2" stroke="#1890ff" fill="none" />
  </g>
</svg>