<?xml version="1.0" encoding="utf-8"?>
<svg version="1.1" xmlns:xlink="http://www.w3.org/1999/xlink" width="10px" height="18px" xmlns="http://www.w3.org/2000/svg">
  <g transform="matrix(1 0 0 1 -1485 -899 )">
    <path d="M 1490 900  C 1492.24 900  1494 903.52  1494 908  C 1494 912.48  1492.24 916  1490 916  C 1487.76 916  1486 912.48  1486 908  C 1486 903.52  1487.76 900  1490 900  Z " fill-rule="nonzero" fill="#ffffff" stroke="none" />
    <path d="M 1490 900  C 1492.24 900  1494 903.52  1494 908  C 1494 912.48  1492.24 916  1490 916  C 1487.76 916  1486 912.48  1486 908  C 1486 903.52  1487.76 900  1490 900  Z " stroke-width="2" stroke="#d9d9d9" fill="none" />
  </g>
</svg>