<?xml version="1.0" encoding="utf-8"?>
<svg version="1.1" xmlns:xlink="http://www.w3.org/1999/xlink" width="10px" height="10px" xmlns="http://www.w3.org/2000/svg">
  <g transform="matrix(1 0 0 1 -1548 -1237 )">
    <path d="M 1553 1238  C 1555.24 1238  1557 1239.76  1557 1242  C 1557 1244.24  1555.24 1246  1553 1246  C 1550.76 1246  1549 1244.24  1549 1242  C 1549 1239.76  1550.76 1238  1553 1238  Z " fill-rule="nonzero" fill="#1890ff" stroke="none" />
    <path d="M 1553 1238  C 1555.24 1238  1557 1239.76  1557 1242  C 1557 1244.24  1555.24 1246  1553 1246  C 1550.76 1246  1549 1244.24  1549 1242  C 1549 1239.76  1550.76 1238  1553 1238  Z " stroke-width="2" stroke="#ffffff" fill="none" />
  </g>
</svg>