<?xml version="1.0" encoding="utf-8"?>
<svg version="1.1" xmlns:xlink="http://www.w3.org/1999/xlink" width="12px" height="12px" viewBox="303 434  12 12" xmlns="http://www.w3.org/2000/svg">
  <path d="M 309 434  C 312.36 434  315 436.64  315 440  C 315 443.36  312.36 446  309 446  C 305.64 446  303 443.36  303 440  C 303 436.64  305.64 434  309 434  Z " fill-rule="nonzero" fill="#ffffff" stroke="none" />
  <path d="M 309 434.5  C 312.08 434.5  314.5 436.92  314.5 440  C 314.5 443.08  312.08 445.5  309 445.5  C 305.92 445.5  303.5 443.08  303.5 440  C 303.5 436.92  305.92 434.5  309 434.5  Z " stroke-width="1" stroke="#797979" fill="none" />
  <path d="M 309 443  C 307.32 443  306 441.68  306 440  C 306 438.32  307.32 437  309 437  C 310.68 437  312 438.32  312 440  C 312 441.68  310.68 443  309 443  " fill-rule="nonzero" fill="#797979" stroke="none" />
</svg>