<?xml version="1.0" encoding="utf-8"?>
<svg version="1.1" xmlns:xlink="http://www.w3.org/1999/xlink" width="25px" height="25px" xmlns="http://www.w3.org/2000/svg">
  <g transform="matrix(1 0 0 1 -478 -719 )">
    <path d="M 490.5 719  C 497.5 719  503 724.5  503 731.5  C 503 738.5  497.5 744  490.5 744  C 483.5 744  478 738.5  478 731.5  C 478 724.5  483.5 719  490.5 719  Z " fill-rule="nonzero" fill="#ffffff" stroke="none" />
    <path d="M 490.5 719.5  C 497.22 719.5  502.5 724.78  502.5 731.5  C 502.5 738.22  497.22 743.5  490.5 743.5  C 483.78 743.5  478.5 738.22  478.5 731.5  C 478.5 724.78  483.78 719.5  490.5 719.5  Z " stroke-width="1" stroke="#797979" fill="none" />
  </g>
</svg>