<?xml version="1.0" encoding="utf-8"?>
<svg version="1.1" xmlns:xlink="http://www.w3.org/1999/xlink" width="60px" height="60px" xmlns="http://www.w3.org/2000/svg">
  <g transform="matrix(1 0 0 1 -111 -290 )">
    <path d="M 111 290  L 171 290  L 171 350  L 111 350  L 111 290  " fill-rule="nonzero" fill="#cccccc" stroke="none" />
    <path d="M 115 294  L 167 294  L 167 346  L 115 346  L 115 294  " fill-rule="nonzero" fill="#ffffff" stroke="none" />
    <path d="M 146.7 308  C 144.18 308  142.2 306.02  142.2 303.5  C 142.2 300.98  144.18 299  146.7 299  C 149.22 299  151.2 300.98  151.2 303.5  C 151.2 306.02  149.22 308  146.7 308  " fill-rule="nonzero" fill="#cccccc" stroke="none" />
    <path d="M 117 345  L 117 318.05  L 129.25 305.8  L 146.4 315.6  L 156.2 313.15  L 166 315.6  L 166 345  L 117 345  " fill-rule="nonzero" fill="#169bd5" stroke="none" />
  </g>
</svg>