<?xml version="1.0" encoding="utf-8"?>
<svg version="1.1" xmlns:xlink="http://www.w3.org/1999/xlink" width="32px" height="32px" xmlns="http://www.w3.org/2000/svg">
  <g transform="matrix(1 0 0 1 -2244 -284 )">
    <path d="M 2260 284.5  C 2268.68 284.5  2275.5 291.32  2275.5 300  C 2275.5 308.68  2268.68 315.5  2260 315.5  C 2251.32 315.5  2244.5 308.68  2244.5 300  C 2244.5 291.32  2251.32 284.5  2260 284.5  Z " fill-rule="nonzero" fill="#ffffff" stroke="none" fill-opacity="0" />
    <path d="M 2260 284.5  C 2268.68 284.5  2275.5 291.32  2275.5 300  C 2275.5 308.68  2268.68 315.5  2260 315.5  C 2251.32 315.5  2244.5 308.68  2244.5 300  C 2244.5 291.32  2251.32 284.5  2260 284.5  Z " stroke-width="1" stroke="#000000" fill="none" stroke-opacity="0.149019607843137" />
  </g>
</svg>