<?xml version="1.0" encoding="utf-8"?>
<svg version="1.1" xmlns:xlink="http://www.w3.org/1999/xlink" width="26px" height="7px" xmlns="http://www.w3.org/2000/svg">
  <g transform="matrix(1 0 0 1 -364 -138 )">
    <path d="M 6.5 3.5  C 6.5 1.56625  5.045625 0  3.25 0  C 1.454375 0  0 1.56625  0 3.5  C 0 5.43375  1.454375 7  3.25 7  C 5.045625 7  6.5 5.43375  6.5 3.5  Z M 26 3.5  C 26 1.56625  24.545625 0  22.75 0  C 20.954375 0  19.5 1.56625  19.5 3.5  C 19.5 5.43375  20.954375 7  22.75 7  C 24.545625 7  26 5.43375  26 3.5  Z M 16.25 3.5  C 16.25 1.56625  14.795625 0  13 0  C 11.204375 0  9.75 1.56625  9.75 3.5  C 9.75 5.43375  11.204375 7  13 7  C 14.795625 7  16.25 5.43375  16.25 3.5  Z " fill-rule="nonzero" fill="#ffffff" stroke="none" transform="matrix(1 0 0 1 364 138 )" />
  </g>
</svg>