<?xml version="1.0" encoding="utf-8"?>
<svg version="1.1" xmlns:xlink="http://www.w3.org/1999/xlink" width="740px" height="496px" xmlns="http://www.w3.org/2000/svg">
  <g transform="matrix(1 0 0 1 -1516 -195 )">
    <path d="M 1516 195  L 2256 195  L 2256 691  L 1516 691  L 1516 195  " fill-rule="nonzero" fill="#cccccc" stroke="none" />
    <path d="M 1551 230  L 2221 230  L 2221 656  L 1551 656  L 1551 230  " fill-rule="nonzero" fill="#ffffff" stroke="none" />
    <path d="M 1938 343.8  C 1917.168 343.8  1900.8 327.432  1900.8 306.6  C 1900.8 285.768  1917.168 269.4  1938 269.4  C 1958.832 269.4  1975.2 285.768  1975.2 306.6  C 1975.2 327.432  1958.832 343.8  1938 343.8  " fill-rule="nonzero" fill="#cccccc" stroke="none" />
    <path d="M 1564 644  L 1564 423.45  L 1725.25 323.2  L 1951 482.732972972973  L 2080 383.35  L 2209 482.732972972973  L 2209 644  L 1564 644  " fill-rule="nonzero" fill="#169bd5" stroke="none" />
  </g>
</svg>