<?xml version="1.0" encoding="utf-8"?>
<svg version="1.1" xmlns:xlink="http://www.w3.org/1999/xlink" width="99px" height="105px" xmlns="http://www.w3.org/2000/svg">
  <g transform="matrix(1 0 0 1 -2136 -398 )">
    <path d="M 96.5115489130435 46.4345314505777  C 98.1705163043478 48.0070603337612  99 50.0288831835687  99 52.5  C 99 54.9261874197689  98.1705163043478 56.9704749679076  96.5115489130435 58.6328626444159  L 52.7282608695652 102.506418485237  C 50.9796195652174 104.168806161746  48.9395380434783 105  46.6080163043478 105  C 44.3213315217391 105  42.3036684782609 104.168806161746  40.555027173913 102.506418485237  L 35.5108695652174 97.4518613607189  C 33.8070652173913 95.7445442875481  32.9551630434783 93.7002567394095  32.9551630434783 91.318998716303  C 32.9551630434783 88.9377406931964  33.8070652173913 86.8934531450578  35.5108695652174 85.186136071887  L 55.2167119565217 65  L 7.86888586956522 65  C 5.53736413043478 65.4396662387677  3.6430027173913 64.5972400513479  2.18580163043478 62.9123876765083  C 0.728600543478261 61.2275353016688  0 59.1944801026958  0 56.8132220795892  L 0 48.1867779204108  C 0 45.8055198973042  0.728600543478261 43.7724646983312  2.18580163043478 42.0876123234917  C 3.6430027173913 40.4027599486521  5.53736413043478 39.5603337612324  7.86888586956522 40  L 55.2167119565217 40  L 35.5108695652174 19.7464698331194  C 33.8070652173913 18.1290115532734  32.9551630434783 16.107188703466  32.9551630434783 13.681001283697  C 32.9551630434783 11.2548138639281  33.8070652173913 9.23299101412067  35.5108695652174 7.61553273427471  L 40.555027173913 2.5609756097561  C 42.2588315217391 0.853658536585359  44.2764945652174 0  46.6080163043478 0  C 48.984375 0  51.0244565217391 0.853658536585359  52.7282608695652 2.5609756097561  L 96.5115489130435 46.4345314505777  Z " fill-rule="nonzero" fill="#999999" stroke="none" transform="matrix(1 0 0 1 2136 398 )" />
  </g>
</svg>