<?xml version="1.0" encoding="utf-8"?>
<svg version="1.1" xmlns:xlink="http://www.w3.org/1999/xlink" width="99px" height="105px" xmlns="http://www.w3.org/2000/svg">
  <g transform="matrix(1 0 0 1 -1529 -398 )">
    <path d="M 96.8141983695652 42.0876123234917  C 98.2713994565217 43.7724646983312  99 45.8055198973042  99 48.1867779204108  L 99 56.8132220795892  C 99 59.1944801026958  98.2713994565217 61.2275353016688  96.8141983695652 62.9123876765083  C 95.3569972826087 64.5972400513479  93.4626358695652 65.4396662387677  91.1311141304348 65  L 43.7832880434783 65  L 63.4891304347826 85.2535301668806  C 65.1929347826087 86.8709884467266  66.0448369565217 88.892811296534  66.0448369565217 91.318998716303  C 66.0448369565217 93.7451861360719  65.1929347826087 95.7670089858793  63.4891304347826 97.3844672657253  L 58.444972826087 102.506418485237  C 56.7860054347826 104.168806161746  54.7683423913043 105  52.3919836956522 105  C 50.0604619565217 105  48.0203804347826 104.168806161746  46.2717391304348 102.506418485237  L 2.48845108695652 58.5654685494223  C 0.829483695652175 56.903080872914  0 54.8812580231065  0 52.5  C 0 50.1636713735558  0.829483695652175 48.1193838254172  2.48845108695652 46.3671373555841  L 46.2717391304348 2.5609756097561  C 47.9755434782609 0.853658536585359  50.015625 0  52.3919836956522 0  C 54.7235054347826 0  56.7411684782609 0.853658536585359  58.444972826087 2.5609756097561  L 63.4891304347826 7.54813863928113  C 65.1929347826087 9.25545571245186  66.0448369565217 11.2997432605905  66.0448369565217 13.681001283697  C 66.0448369565217 16.0622593068036  65.1929347826087 18.1065468549422  63.4891304347826 19.813863928113  L 43.7832880434783 40  L 91.1311141304348 40  C 93.4626358695652 39.5603337612324  95.3569972826087 40.4027599486521  96.8141983695652 42.0876123234917  Z " fill-rule="nonzero" fill="#999999" stroke="none" transform="matrix(1 0 0 1 1529 398 )" />
  </g>
</svg>