<?xml version="1.0" encoding="utf-8"?>
<svg version="1.1" xmlns:xlink="http://www.w3.org/1999/xlink" width="12px" height="12px" viewBox="605 359  12 12" xmlns="http://www.w3.org/2000/svg">
  <path d="M 611 359  C 614.36 359  617 361.64  617 365  C 617 368.36  614.36 371  611 371  C 607.64 371  605 368.36  605 365  C 605 361.64  607.64 359  611 359  Z " fill-rule="nonzero" fill="#ffffff" stroke="none" />
  <path d="M 611 359.5  C 614.08 359.5  616.5 361.92  616.5 365  C 616.5 368.08  614.08 370.5  611 370.5  C 607.92 370.5  605.5 368.08  605.5 365  C 605.5 361.92  607.92 359.5  611 359.5  Z " stroke-width="1" stroke="#797979" fill="none" />
  <path d="M 611 368  C 609.32 368  608 366.68  608 365  C 608 363.32  609.32 362  611 362  C 612.68 362  614 363.32  614 365  C 614 366.68  612.68 368  611 368  " fill-rule="nonzero" fill="#797979" stroke="none" />
</svg>