<?xml version="1.0" encoding="utf-8"?>
<svg version="1.1" xmlns:xlink="http://www.w3.org/1999/xlink" width="12px" height="12px" viewBox="605 387  12 12" xmlns="http://www.w3.org/2000/svg">
  <path d="M 611 387  C 614.36 387  617 389.64  617 393  C 617 396.36  614.36 399  611 399  C 607.64 399  605 396.36  605 393  C 605 389.64  607.64 387  611 387  Z " fill-rule="nonzero" fill="#ffffff" stroke="none" />
  <path d="M 611 387.5  C 614.08 387.5  616.5 389.92  616.5 393  C 616.5 396.08  614.08 398.5  611 398.5  C 607.92 398.5  605.5 396.08  605.5 393  C 605.5 389.92  607.92 387.5  611 387.5  Z " stroke-width="1" stroke="#797979" fill="none" />
  <path d="M 611 396  C 609.32 396  608 394.68  608 393  C 608 391.32  609.32 390  611 390  C 612.68 390  614 391.32  614 393  C 614 394.68  612.68 396  611 396  " fill-rule="nonzero" fill="#797979" stroke="none" />
</svg>