<?xml version="1.0" encoding="utf-8"?>
<svg version="1.1" xmlns:xlink="http://www.w3.org/1999/xlink" width="12px" height="12px" viewBox="599 387  12 12" xmlns="http://www.w3.org/2000/svg">
  <path d="M 605 387  C 608.36 387  611 389.64  611 393  C 611 396.36  608.36 399  605 399  C 601.64 399  599 396.36  599 393  C 599 389.64  601.64 387  605 387  Z " fill-rule="nonzero" fill="#ffffff" stroke="none" />
  <path d="M 605 387.5  C 608.08 387.5  610.5 389.92  610.5 393  C 610.5 396.08  608.08 398.5  605 398.5  C 601.92 398.5  599.5 396.08  599.5 393  C 599.5 389.92  601.92 387.5  605 387.5  Z " stroke-width="1" stroke="#797979" fill="none" />
  <path d="M 605 396  C 603.32 396  602 394.68  602 393  C 602 391.32  603.32 390  605 390  C 606.68 390  608 391.32  608 393  C 608 394.68  606.68 396  605 396  " fill-rule="nonzero" fill="#797979" stroke="none" />
</svg>