<?xml version="1.0" encoding="utf-8"?>
<svg version="1.1" xmlns:xlink="http://www.w3.org/1999/xlink" width="12px" height="12px" viewBox="458 387  12 12" xmlns="http://www.w3.org/2000/svg">
  <path d="M 464 387  C 467.36 387  470 389.64  470 393  C 470 396.36  467.36 399  464 399  C 460.64 399  458 396.36  458 393  C 458 389.64  460.64 387  464 387  Z " fill-rule="nonzero" fill="#ffffff" stroke="none" />
  <path d="M 464 387.5  C 467.08 387.5  469.5 389.92  469.5 393  C 469.5 396.08  467.08 398.5  464 398.5  C 460.92 398.5  458.5 396.08  458.5 393  C 458.5 389.92  460.92 387.5  464 387.5  Z " stroke-width="1" stroke="#797979" fill="none" />
  <path d="M 464 396  C 462.32 396  461 394.68  461 393  C 461 391.32  462.32 390  464 390  C 465.68 390  467 391.32  467 393  C 467 394.68  465.68 396  464 396  " fill-rule="nonzero" fill="#797979" stroke="none" />
</svg>