<?xml version="1.0" encoding="utf-8"?>
<svg version="1.1" xmlns:xlink="http://www.w3.org/1999/xlink" width="12px" height="12px" viewBox="458 359  12 12" xmlns="http://www.w3.org/2000/svg">
  <path d="M 464 359  C 467.36 359  470 361.64  470 365  C 470 368.36  467.36 371  464 371  C 460.64 371  458 368.36  458 365  C 458 361.64  460.64 359  464 359  Z " fill-rule="nonzero" fill="#ffffff" stroke="none" />
  <path d="M 464 359.5  C 467.08 359.5  469.5 361.92  469.5 365  C 469.5 368.08  467.08 370.5  464 370.5  C 460.92 370.5  458.5 368.08  458.5 365  C 458.5 361.92  460.92 359.5  464 359.5  Z " stroke-width="1" stroke="#797979" fill="none" />
  <path d="M 464 368  C 462.32 368  461 366.68  461 365  C 461 363.32  462.32 362  464 362  C 465.68 362  467 363.32  467 365  C 467 366.68  465.68 368  464 368  " fill-rule="nonzero" fill="#797979" stroke="none" />
</svg>