<?xml version="1.0" encoding="utf-8"?>
<svg version="1.1" xmlns:xlink="http://www.w3.org/1999/xlink" width="6px" height="4px" xmlns="http://www.w3.org/2000/svg">
  <g transform="matrix(1 0 0 1 -304 -286 )">
    <path d="M 5.888671875 3.86805555555554  C 5.962890625 3.78009259259261  6 3.67592592592592  6 3.55555555555554  C 6 3.43518518518516  5.962890625 3.33101851851853  5.888671875 3.24305555555554  L 3.263671875 0.131944444444457  C 3.189453125 0.0439814814814667  3.1015625 0  3 0  C 2.8984375 0  2.810546875 0.0439814814814667  2.736328125 0.131944444444457  L 0.111328125 3.24305555555554  C 0.037109375 3.33101851851853  0 3.43518518518516  0 3.55555555555554  C 0 3.67592592592592  0.037109375 3.78009259259261  0.111328125 3.86805555555554  C 0.185546875 3.95601851851853  0.2734375 4  0.375 4  L 5.625 4  C 5.7265625 4  5.814453125 3.95601851851853  5.888671875 3.86805555555554  Z " fill-rule="nonzero" fill="#00a950" stroke="none" transform="matrix(1 0 0 1 304 286 )" />
  </g>
</svg>