<?xml version="1.0" encoding="utf-8"?>
<svg version="1.1" xmlns:xlink="http://www.w3.org/1999/xlink" width="7px" height="8px" xmlns="http://www.w3.org/2000/svg">
  <g transform="matrix(1 0 0 1 -913 -322 )">
    <path d="M 916.5 323  C 917.9 323  919 324.32  919 326  C 919 327.68  917.9 329  916.5 329  C 915.1 329  914 327.68  914 326  C 914 324.32  915.1 323  916.5 323  Z " fill-rule="nonzero" fill="#ffffff" stroke="none" />
    <path d="M 916.5 323  C 917.9 323  919 324.32  919 326  C 919 327.68  917.9 329  916.5 329  C 915.1 329  914 327.68  914 326  C 914 324.32  915.1 323  916.5 323  Z " stroke-width="2" stroke="#2db7f5" fill="none" />
  </g>
</svg>