<?xml version="1.0" encoding="utf-8"?>
<svg version="1.1" xmlns:xlink="http://www.w3.org/1999/xlink" width="843px" height="181px" xmlns="http://www.w3.org/2000/svg">
  <g transform="matrix(1 0 0 1 -542 -324 )">
    <path d="M 841.360182370821 179.5  L 1.5355623100304 179.5  C 1.5355623100304 179.5  0.255927051671733 89.8000000000001  0.255927051671733 90.2  C 12.694147080489 89.8220244596549  46.5238773851836 88  72.5126646403241 88  C 117.086626139818 88  113.460992907801 116  150.143870314083 116  C 186.826747720365 116  173.425910376851 64.205553807075  229.48125633232 64.6666666666665  C 270.003039513678 65  275.904902623905 82.4816713087945  300.287740628166 82.6666666666665  C 344.22188449848 83  340.382978723404 0.33333333333303  383.890577507599 0.666666666666515  C 427.398176291794 1  404.825484207035 86.6037003010063  454.697061803445 92  C 482.422492401216 95  493.725937183384 91.5  530.622087132725 94  C 567.518237082067 96.5  566.878419452888 147  609.959473150962 147.333333333333  C 653.040526849037 147.666666666667  643.797375575216 129.190878621366  686.737588652482 129.333333333333  C 733.137452538876 129.487265481583  735.363728470111 148.666666666667  769.487335359676 149.333333333333  C 798.096205355733 149.892259593945  821.013981762918 115  839.440729483283 116  C 839.952583586627 116.6  841.360182370821 179.5  841.360182370821 179.5  Z " fill-rule="nonzero" fill="#49a9ee" stroke="none" transform="matrix(1 0 0 1 542 324 )" />
  </g>
</svg>