<?xml version="1.0" encoding="utf-8"?>
<svg version="1.1" xmlns:xlink="http://www.w3.org/1999/xlink" width="135px" height="81px" xmlns="http://www.w3.org/2000/svg">
  <defs>
    <mask fill="white" id="clip24">
      <path d="M 0 69.0892857142858  L 0 3.91071428571422  C 0 1.72071428571439  2.46529411764698 0  5.60294117647061 0  L 121.39705882353 0  C 124.534705882353 0  127 1.72071428571439  127 3.91071428571422  L 127 69.0892857142858  C 127 71.2792857142858  124.534705882353 73  121.39705882353 73  L 5.60294117647061 73  C 2.46529411764698 73  0 71.2792857142858  0 69.0892857142858  Z " fill-rule="evenodd" />
    </mask>
    <filter x="930px" y="290px" width="135px" height="81px" filterUnits="userSpaceOnUse" id="filter25">
      <feOffset dx="0" dy="0" in="SourceAlpha" result="shadowOffsetInner" />
      <feGaussianBlur stdDeviation="2" in="shadowOffsetInner" result="shadowGaussian" />
      <feComposite in2="shadowGaussian" operator="atop" in="SourceAlpha" result="shadowComposite" />
      <feColorMatrix type="matrix" values="0 0 0 0 0  0 0 0 0 0  0 0 0 0 0  0 0 0 0.149019607843137 0  " in="shadowComposite" />
    </filter>
    <g id="widget26">
      <path d="M 0 69.0892857142858  L 0 3.91071428571422  C 0 1.72071428571439  2.46529411764698 0  5.60294117647061 0  L 121.39705882353 0  C 124.534705882353 0  127 1.72071428571439  127 3.91071428571422  L 127 69.0892857142858  C 127 71.2792857142858  124.534705882353 73  121.39705882353 73  L 5.60294117647061 73  C 2.46529411764698 73  0 71.2792857142858  0 69.0892857142858  Z " fill-rule="nonzero" fill="#ffffff" stroke="none" transform="matrix(1 0 0 1 934 294 )" />
      <path d="M 0 69.0892857142858  L 0 3.91071428571422  C 0 1.72071428571439  2.46529411764698 0  5.60294117647061 0  L 121.39705882353 0  C 124.534705882353 0  127 1.72071428571439  127 3.91071428571422  L 127 69.0892857142858  C 127 71.2792857142858  124.534705882353 73  121.39705882353 73  L 5.60294117647061 73  C 2.46529411764698 73  0 71.2792857142858  0 69.0892857142858  Z " stroke-width="2" stroke="#ebebeb" fill="none" transform="matrix(1 0 0 1 934 294 )" mask="url(#clip24)" />
    </g>
  </defs>
  <g transform="matrix(1 0 0 1 -930 -290 )">
    <use xlink:href="#widget26" filter="url(#filter25)" />
    <use xlink:href="#widget26" />
  </g>
</svg>