<?xml version="1.0" encoding="utf-8"?>
<svg version="1.1" xmlns:xlink="http://www.w3.org/1999/xlink" width="843px" height="153px" xmlns="http://www.w3.org/2000/svg">
  <g transform="matrix(1 0 0 1 -541 -324 )">
    <path d="M 0 89.3333333333333  C 0 89.3333333333333  27.9573170731707 88  72.560975609756 88  C 117.164634146342 88  113.536585365854 116  150.243902439024 116  C 186.951219512195 116  173.541453970462 64.205553807075  229.634146341463 64.6666666666665  C 270.182926829268 65  276.088722007497 82.4816713087945  300.487804878049 82.6666666666665  C 344.451219512195 83  340.609756097561 0.33333333333303  384.146341463415 0.666666666666515  C 427.682926829268 1  405.095195873125 86.6037003010063  455 92  C 482.743902439024 95  494.05487804878 91.5  530.975609756098 94  C 567.896341463415 96.5  567.256097560976 147  610.365853658537 147.333333333333  C 653.475609756098 147.666666666667  644.226300308378 129.190878621366  687.195121951219 129.333333333333  C 733.625899367228 129.487265481583  735.853658536585 148.666666666667  770 149.333333333333  C 804.146341463415 150  818.087079217899 112.512396694215  839.146341463415 114  " stroke-width="2" stroke="#49a9ee" fill="none" transform="matrix(1 0 0 1 542 325 )" />
  </g>
</svg>