<?xml version="1.0" encoding="utf-8"?>
<svg version="1.1" xmlns:xlink="http://www.w3.org/1999/xlink" width="70px" height="24px" xmlns="http://www.w3.org/2000/svg">
  <g transform="matrix(1 0 0 1 -1245 -392 )">
    <path d="M 1246 396  A 3 3 0 0 1 1249 393 L 1311 393  A 3 3 0 0 1 1314 396 L 1314 412  A 3 3 0 0 1 1311 415 L 1249 415  A 3 3 0 0 1 1246 412 L 1246 396  Z " fill-rule="nonzero" fill="#ffffff" stroke="none" />
    <path d="M 1245.5 396  A 3.5 3.5 0 0 1 1249 392.5 L 1311 392.5  A 3.5 3.5 0 0 1 1314.5 396 L 1314.5 412  A 3.5 3.5 0 0 1 1311 415.5 L 1249 415.5  A 3.5 3.5 0 0 1 1245.5 412 L 1245.5 396  Z " stroke-width="1" stroke-dasharray="9,4" stroke="#1890ff" fill="none" stroke-dashoffset="0.5" />
  </g>
</svg>