<?xml version="1.0" encoding="utf-8"?>
<svg version="1.1" xmlns:xlink="http://www.w3.org/1999/xlink" width="28px" height="28px" xmlns="http://www.w3.org/2000/svg">
  <defs>
    <filter x="657px" y="652px" width="28px" height="28px" filterUnits="userSpaceOnUse" id="filter1">
      <feOffset dx="0" dy="1" in="SourceAlpha" result="shadowOffsetInner" />
      <feGaussianBlur stdDeviation="1" in="shadowOffsetInner" result="shadowGaussian" />
      <feComposite in2="shadowGaussian" operator="atop" in="SourceAlpha" result="shadowComposite" />
      <feColorMatrix type="matrix" values="0 0 0 0 0  0 0 0 0 0  0 0 0 0 0  0 0 0 0.349019607843137 0  " in="shadowComposite" />
    </filter>
    <g id="widget2">
      <path d="M 671 653  C 677.72 653  683 658.28  683 665  C 683 671.72  677.72 677  671 677  C 664.28 677  659 671.72  659 665  C 659 658.28  664.28 653  671 653  Z " fill-rule="nonzero" fill="#ffffff" stroke="none" />
      <path d="M 671 653.5  C 677.44 653.5  682.5 658.56  682.5 665  C 682.5 671.44  677.44 676.5  671 676.5  C 664.56 676.5  659.5 671.44  659.5 665  C 659.5 658.56  664.56 653.5  671 653.5  Z " stroke-width="1" stroke="#d9d9d9" fill="none" />
    </g>
  </defs>
  <g transform="matrix(1 0 0 1 -657 -652 )">
    <use xlink:href="#widget2" filter="url(#filter1)" />
    <use xlink:href="#widget2" />
  </g>
</svg>