<?xml version="1.0" encoding="utf-8"?>
<svg version="1.1" xmlns:xlink="http://www.w3.org/1999/xlink" width="110px" height="35px" xmlns="http://www.w3.org/2000/svg">
  <g transform="matrix(1 0 0 1 -1636 -249 )">
    <path d="M 1637 254  A 4 4 0 0 1 1641 250 L 1741 250  A 4 4 0 0 1 1745 254 L 1745 279  A 4 4 0 0 1 1741 283 L 1641 283  A 4 4 0 0 1 1637 279 L 1637 254  Z " fill-rule="nonzero" fill="#ffffff" stroke="none" />
    <path d="M 1636.5 254  A 4.5 4.5 0 0 1 1641 249.5 L 1741 249.5  A 4.5 4.5 0 0 1 1745.5 254 L 1745.5 279  A 4.5 4.5 0 0 1 1741 283.5 L 1641 283.5  A 4.5 4.5 0 0 1 1636.5 279 L 1636.5 254  Z " stroke-width="1" stroke-dasharray="3,1" stroke="#797979" fill="none" stroke-dashoffset="0.5" />
  </g>
</svg>