<?xml version="1.0" encoding="utf-8"?>
<svg version="1.1" xmlns:xlink="http://www.w3.org/1999/xlink" width="438px" height="192px" xmlns="http://www.w3.org/2000/svg">
  <g transform="matrix(1 0 0 1 -318 -558 )">
    <path d="M 319 564  A 5 5 0 0 1 324 559 L 750 559  A 5 5 0 0 1 755 564 L 755 744  A 5 5 0 0 1 750 749 L 324 749  A 5 5 0 0 1 319 744 L 319 564  Z " fill-rule="nonzero" fill="#000000" stroke="none" fill-opacity="0.0196078431372549" />
    <path d="M 318.5 564  A 5.5 5.5 0 0 1 324 558.5 L 750 558.5  A 5.5 5.5 0 0 1 755.5 564 L 755.5 744  A 5.5 5.5 0 0 1 750 749.5 L 324 749.5  A 5.5 5.5 0 0 1 318.5 744 L 318.5 564  Z " stroke-width="1" stroke-dasharray="9,4" stroke="#108ee9" fill="none" stroke-dashoffset="0.5" />
  </g>
</svg>