<?xml version="1.0" encoding="utf-8"?>
<svg version="1.1" xmlns:xlink="http://www.w3.org/1999/xlink" width="12px" height="12px" viewBox="297 240  12 12" xmlns="http://www.w3.org/2000/svg">
  <path d="M 303 240  C 306.36 240  309 242.64  309 246  C 309 249.36  306.36 252  303 252  C 299.64 252  297 249.36  297 246  C 297 242.64  299.64 240  303 240  Z " fill-rule="nonzero" fill="#ffffff" stroke="none" />
  <path d="M 303 240.5  C 306.08 240.5  308.5 242.92  308.5 246  C 308.5 249.08  306.08 251.5  303 251.5  C 299.92 251.5  297.5 249.08  297.5 246  C 297.5 242.92  299.92 240.5  303 240.5  Z " stroke-width="1" stroke="#797979" fill="none" />
  <path d="M 303 249  C 301.32 249  300 247.68  300 246  C 300 244.32  301.32 243  303 243  C 304.68 243  306 244.32  306 246  C 306 247.68  304.68 249  303 249  " fill-rule="nonzero" fill="#797979" stroke="none" />
</svg>