<?xml version="1.0" encoding="utf-8"?>
<svg version="1.1" xmlns:xlink="http://www.w3.org/1999/xlink" width="157px" height="71px" xmlns="http://www.w3.org/2000/svg">
  <g transform="matrix(1 0 0 1 -1022 -848 )">
    <path d="M 1022 848  L 1179 848  L 1179 919  L 1022 919  L 1022 848  " fill-rule="nonzero" fill="#cccccc" stroke="none" />
    <path d="M 1027 853  L 1174 853  L 1174 914  L 1027 914  L 1027 853  " fill-rule="nonzero" fill="#ffffff" stroke="none" />
    <path d="M 1108.965 869.3  C 1105.983 869.3  1103.64 866.957  1103.64 863.975  C 1103.64 860.993  1105.983 858.65  1108.965 858.65  C 1111.947 858.65  1114.29 860.993  1114.29 863.975  C 1114.29 866.957  1111.947 869.3  1108.965 869.3  " fill-rule="nonzero" fill="#cccccc" stroke="none" />
    <path d="M 1029 912  L 1029 880.65  L 1064.75 866.4  L 1114.8 896.533757961783  L 1143.4 874.95  L 1172 896.533757961783  L 1172 912  L 1029 912  " fill-rule="nonzero" fill="#169bd5" stroke="none" />
  </g>
</svg>