<?xml version="1.0" encoding="utf-8"?>
<svg version="1.1" xmlns:xlink="http://www.w3.org/1999/xlink" width="1088px" height="32px" xmlns="http://www.w3.org/2000/svg">
  <g transform="matrix(1 0 0 1 -296 -513 )">
    <path d="M 297 517  A 3 3 0 0 1 300 514 L 1380 514  A 3 3 0 0 1 1383 517 L 1383 541  A 3 3 0 0 1 1380 544 L 300 544  A 3 3 0 0 1 297 541 L 297 517  Z " fill-rule="nonzero" fill="#ffffff" stroke="none" />
    <path d="M 296.5 517  A 3.5 3.5 0 0 1 300 513.5 L 1380 513.5  A 3.5 3.5 0 0 1 1383.5 517 L 1383.5 541  A 3.5 3.5 0 0 1 1380 544.5 L 300 544.5  A 3.5 3.5 0 0 1 296.5 541 L 296.5 517  Z " stroke-width="1" stroke-dasharray="9,4" stroke="#e9e9e9" fill="none" stroke-dashoffset="0.5" />
  </g>
</svg>