<?xml version="1.0" encoding="utf-8"?>
<svg version="1.1" xmlns:xlink="http://www.w3.org/1999/xlink" width="15px" height="15px" xmlns="http://www.w3.org/2000/svg">
  <g transform="matrix(1 0 0 1 -61 -225 )">
    <path d="M 68.5 225  C 72.7 225  76 228.3  76 232.5  C 76 236.7  72.7 240  68.5 240  C 64.3 240  61 236.7  61 232.5  C 61 228.3  64.3 225  68.5 225  Z " fill-rule="nonzero" fill="#006ff5" stroke="none" />
    <path d="M 68.5 225.5  C 72.42 225.5  75.5 228.58  75.5 232.5  C 75.5 236.42  72.42 239.5  68.5 239.5  C 64.58 239.5  61.5 236.42  61.5 232.5  C 61.5 228.58  64.58 225.5  68.5 225.5  Z " stroke-width="1" stroke="#797979" fill="none" />
  </g>
</svg>