<?xml version="1.0" encoding="utf-8"?>
<svg version="1.1" xmlns:xlink="http://www.w3.org/1999/xlink" width="15px" height="15px" xmlns="http://www.w3.org/2000/svg">
  <g transform="matrix(1 0 0 1 -206 -225 )">
    <path d="M 213.5 225  C 217.7 225  221 228.3  221 232.5  C 221 236.7  217.7 240  213.5 240  C 209.3 240  206 236.7  206 232.5  C 206 228.3  209.3 225  213.5 225  Z " fill-rule="nonzero" fill="#ffffff" stroke="none" />
    <path d="M 213.5 225.5  C 217.42 225.5  220.5 228.58  220.5 232.5  C 220.5 236.42  217.42 239.5  213.5 239.5  C 209.58 239.5  206.5 236.42  206.5 232.5  C 206.5 228.58  209.58 225.5  213.5 225.5  Z " stroke-width="1" stroke="#797979" fill="none" />
  </g>
</svg>