<?xml version="1.0" encoding="utf-8"?>
<svg version="1.1" xmlns:xlink="http://www.w3.org/1999/xlink" width="94px" height="38px" xmlns="http://www.w3.org/2000/svg">
  <g transform="matrix(1 0 0 1 -296 -520 )">
    <path d="M 297 522  A 1 1 0 0 1 298 521 L 388 521  A 1 1 0 0 1 389 522 L 389 556  A 1 1 0 0 1 388 557 L 298 557  A 1 1 0 0 1 297 556 L 297 522  Z " fill-rule="nonzero" fill="#4bb2ff" stroke="none" fill-opacity="0.8" />
    <path d="M 296.5 522  A 1.5 1.5 0 0 1 298 520.5 L 388 520.5  A 1.5 1.5 0 0 1 389.5 522 L 389.5 556  A 1.5 1.5 0 0 1 388 557.5 L 298 557.5  A 1.5 1.5 0 0 1 296.5 556 L 296.5 522  Z " stroke-width="1" stroke="#4bb2ff" fill="none" stroke-opacity="0.8" />
  </g>
</svg>