<?xml version="1.0" encoding="utf-8"?>
<svg version="1.1" xmlns:xlink="http://www.w3.org/1999/xlink" width="94px" height="38px" xmlns="http://www.w3.org/2000/svg">
  <g transform="matrix(1 0 0 1 -296 -520 )">
    <path d="M 296.5 522  A 1.5 1.5 0 0 1 298 520.5 L 388 520.5  A 1.5 1.5 0 0 1 389.5 522 L 389.5 556  A 1.5 1.5 0 0 1 388 557.5 L 298 557.5  A 1.5 1.5 0 0 1 296.5 556 L 296.5 522  Z " fill-rule="nonzero" fill="#1e9fff" stroke="none" />
    <path d="M 296.5 522  A 1.5 1.5 0 0 1 298 520.5 L 388 520.5  A 1.5 1.5 0 0 1 389.5 522 L 389.5 556  A 1.5 1.5 0 0 1 388 557.5 L 298 557.5  A 1.5 1.5 0 0 1 296.5 556 L 296.5 522  Z " stroke-width="1" stroke="#1e9fff" fill="none" />
  </g>
</svg>